<svg width="250" height="250" viewBox="0 0 250 250" fill="none" xmlns="http://www.w3.org/2000/svg">
  <path d="M49.6225 247.549L199.966 247.549C226.132 247.549 247.343 226.337 247.343 200.171L247.343 49.8282C247.343 23.6624 226.132 2.45079 199.966 2.45079L49.6225 2.45079C23.4567 2.45079 2.2451 23.6624 2.2451 49.8282L2.2451 200.171C2.2451 226.337 23.4567 247.549 49.6225 247.549Z" fill="url(#paint0_linear_1_275)"/>
  <path d="M86.0784 151.922L104.309 145.681C104.633 145.57 104.931 145.394 105.185 145.163C105.439 144.933 105.643 144.654 105.786 144.342C105.929 144.03 106.006 143.693 106.014 143.35C106.023 143.007 105.961 142.666 105.833 142.348L91.0049 105.392C90.7763 104.82 90.72 104.192 90.8428 103.588C90.9656 102.984 91.2621 102.428 91.6961 101.99L113.794 79.7452C114.12 79.4475 114.351 79.0594 114.456 78.6303C114.56 78.2013 114.535 77.7508 114.384 77.3361C114.232 76.9213 113.96 76.5612 113.602 76.3015C113.245 76.0417 112.819 75.8942 112.377 75.8776H68.5245C68.1737 75.8643 67.8247 75.9342 67.5061 76.0816C67.1875 76.229 66.9082 76.4497 66.6912 76.7256L46.1618 100.049C44.9653 101.569 44.37 103.475 44.4893 105.405C44.6087 107.336 45.4343 109.154 46.8088 110.515L83.3823 151.201C83.7115 151.572 84.1426 151.839 84.622 151.967C85.1014 152.095 85.6079 152.079 86.0784 151.922Z" fill="#1B1C1B"/>
  <path d="M110.716 120.657C109.695 120.656 108.698 120.958 107.849 121.524C107 122.09 106.338 122.895 105.947 123.838C105.556 124.78 105.454 125.818 105.653 126.818C105.852 127.819 106.343 128.739 107.064 129.46C107.786 130.182 108.705 130.673 109.706 130.872C110.707 131.07 111.744 130.968 112.686 130.577C113.629 130.186 114.434 129.524 115.001 128.676C115.567 127.827 115.869 126.829 115.868 125.809C115.868 124.442 115.325 123.132 114.359 122.166C113.392 121.2 112.082 120.657 110.716 120.657Z" fill="#1B1C1B"/>
  <path d="M110.853 154.902C110.736 154.612 110.517 154.375 110.236 154.238C109.956 154.1 109.634 154.071 109.333 154.157L80.4902 162.343C80.2475 162.418 80.0378 162.574 79.8959 162.785C79.754 162.995 79.6885 163.248 79.7103 163.501C79.732 163.754 79.8397 163.992 80.0155 164.176C80.1913 164.359 80.4245 164.477 80.6765 164.51L94.7353 164.588C94.9108 164.59 95.0841 164.628 95.2443 164.699C95.4045 164.771 95.5483 164.875 95.6667 165.005L103.51 173.706C103.629 173.837 103.774 173.941 103.936 174.013C104.099 174.085 104.274 174.122 104.451 174.122H116.706C116.912 174.123 117.116 174.073 117.298 173.976C117.48 173.88 117.636 173.74 117.752 173.569C117.868 173.398 117.94 173.201 117.962 172.996C117.983 172.791 117.955 172.583 117.877 172.392L110.853 154.902Z" fill="#1B1C1B"/>
  <path d="M203.431 100.049L182.902 76.7253C182.684 76.4487 182.404 76.2276 182.085 76.0802C181.765 75.9328 181.415 75.8632 181.064 75.8773H137.211C136.77 75.8948 136.344 76.043 135.988 76.3031C135.631 76.5632 135.36 76.9234 135.209 77.3379C135.057 77.7524 135.033 78.2026 135.138 78.6312C135.243 79.0598 135.473 79.4474 135.799 79.7449L157.892 101.99C158.327 102.428 158.624 102.983 158.746 103.588C158.869 104.192 158.813 104.819 158.583 105.392L143.755 142.343C143.627 142.661 143.566 143.002 143.574 143.345C143.582 143.687 143.66 144.025 143.802 144.337C143.945 144.648 144.149 144.928 144.403 145.158C144.657 145.388 144.955 145.565 145.279 145.676L163.51 151.916C163.979 152.076 164.485 152.095 164.965 151.97C165.445 151.846 165.878 151.583 166.211 151.216L202.779 110.529C204.159 109.169 204.988 107.347 205.108 105.414C205.228 103.48 204.631 101.57 203.431 100.049Z" fill="#1B1C1B"/>
  <path d="M138.877 130.961C141.723 130.961 144.029 128.654 144.029 125.809C144.029 122.963 141.723 120.657 138.877 120.657C136.032 120.657 133.725 122.963 133.725 125.809C133.725 128.654 136.032 130.961 138.877 130.961Z" fill="#1B1C1B"/>
  <path d="M169.118 162.343L140.275 154.172C139.972 154.076 139.644 154.098 139.357 154.233C139.07 154.369 138.844 154.607 138.725 154.902L131.721 172.377C131.644 172.569 131.615 172.776 131.636 172.982C131.658 173.187 131.73 173.383 131.846 173.554C131.962 173.725 132.118 173.865 132.3 173.962C132.482 174.058 132.686 174.108 132.892 174.108H145.147C145.324 174.108 145.498 174.07 145.659 173.999C145.821 173.927 145.965 173.822 146.083 173.691L153.926 164.99C154.044 164.86 154.188 164.755 154.348 164.683C154.508 164.612 154.682 164.574 154.858 164.574L168.917 164.495C169.163 164.459 169.39 164.34 169.561 164.16C169.732 163.979 169.838 163.746 169.861 163.498C169.884 163.25 169.823 163.002 169.689 162.792C169.554 162.583 169.353 162.425 169.118 162.343Z" fill="#1B1C1B"/>
  <defs>
    <linearGradient id="paint0_linear_1_275" x1="124.794" y1="247.549" x2="124.794" y2="2.45079" gradientUnits="userSpaceOnUse">
      <stop stop-color="#00BD99"/>
      <stop offset="1" stop-color="#00B4D1"/>
    </linearGradient>
  </defs>
</svg>
